<svg width="41" height="41" viewBox="0 0 41 41" fill="none" xmlns="http://www.w3.org/2000/svg">
<path d="M40.7714 23.0082L40.776 23.0024C40.7947 22.9733 40.8087 22.9442 40.8227 22.915C40.8227 22.9092 40.8274 22.9092 40.8274 22.9034C40.8414 22.8742 40.8554 22.8451 40.8694 22.8101C40.9253 22.682 40.9627 22.5421 40.986 22.3907V22.3848C40.9907 22.3499 40.9953 22.3149 40.9953 22.28V22.2741C40.9953 22.2392 41 22.21 41 22.1751V22.1576V22.1459C41 22.1168 41 22.0877 40.9953 22.0585V22.0469C40.986 21.8838 40.9533 21.7264 40.902 21.5808L34.0197 0.932216C33.8424 0.402018 33.4271 0.0582635 32.9652 0.0582635H32.9605C32.9232 0.0582635 32.8859 0.0640893 32.8485 0.0640893C32.7412 0.0233049 32.6246 0 32.5079 0H8.82804C8.6834 0 8.54342 0.0349575 8.41277 0.093221C8.32878 0.0699156 8.24013 0.0524368 8.15147 0.0524368H8.14681C7.68488 0.0524368 7.2696 0.396191 7.08763 0.920562L0.0933197 21.5924C0.0653238 21.6682 0.0466601 21.7439 0.0326621 21.8255V21.8313C0.0186641 21.9012 0.0093319 21.9712 0.00466591 22.0411V22.0585C0.00466591 22.0877 0 22.1168 0 22.1518V22.1751C0 22.2042 -7.12668e-08 22.2392 0.00466591 22.2683V22.28C0.0093319 22.3149 0.00933211 22.3499 0.0139981 22.3848C0.032662 22.5363 0.0746559 22.6761 0.130648 22.8043C0.144646 22.8335 0.158644 22.8684 0.172642 22.8975C0.172642 22.9034 0.177308 22.9034 0.177308 22.9092C0.191305 22.9383 0.209969 22.9675 0.223967 22.9966C0.223967 22.9966 0.223967 23.0024 0.228633 23.0024C0.242631 23.0316 0.261295 23.0549 0.279959 23.0782L0.289291 23.0898C0.307955 23.1131 0.326619 23.1423 0.345283 23.1656L0.354615 23.1772C0.373279 23.2005 0.396609 23.2238 0.419939 23.2471L7.36759 30.1921C7.57756 30.4019 7.83419 30.5068 8.08615 30.5068C8.34278 30.5068 8.59474 30.4019 8.80471 30.1921L15.7524 23.2471C15.7757 23.2238 15.7944 23.2005 15.8177 23.1772L15.827 23.1656L15.883 23.0956C15.8877 23.0898 15.8877 23.084 15.8923 23.084C15.911 23.0607 15.925 23.0374 15.939 23.0141C15.939 23.0082 15.9437 23.0082 15.9437 23.0024C15.9577 22.9733 15.9763 22.95 15.9903 22.9208C15.995 22.915 15.995 22.9092 15.9997 22.9034L16.0417 22.816C16.0417 22.816 16.0417 22.8101 16.0463 22.8101C16.0743 22.7461 16.0976 22.682 16.1163 22.6121V22.6062C16.135 22.5363 16.149 22.4722 16.1583 22.3965V22.3848C16.163 22.3499 16.1676 22.3149 16.1676 22.28V22.2683C16.1676 22.2392 16.1723 22.21 16.1723 22.1809V22.1576V22.1459C16.1723 22.1168 16.1723 22.0877 16.1676 22.0585V22.0411C16.1676 22.0061 16.163 21.977 16.1583 21.942C16.1536 21.9071 16.149 21.8663 16.1396 21.8313V21.8255C16.1256 21.7439 16.1023 21.6565 16.0743 21.5808L9.84056 2.8316H19.5178V38.1684H11.5576C10.9231 38.1684 10.4098 38.8035 10.4098 39.5842C10.4098 40.3649 10.9231 41 11.5576 41H29.769C30.4036 41 30.9168 40.3649 30.9168 39.5842C30.9168 38.8035 30.4036 38.1684 29.769 38.1684H21.8088V2.8316H31.2528L24.9024 21.5924C24.8744 21.6682 24.8557 21.7439 24.8417 21.8255V21.8313C24.8277 21.9012 24.8184 21.9712 24.8137 22.0411V22.0585C24.8137 22.0877 24.809 22.1168 24.809 22.1518V22.1751C24.809 22.21 24.809 22.2392 24.8137 22.2683V22.28C24.8184 22.3149 24.8184 22.3499 24.823 22.3848C24.8417 22.5363 24.8837 22.6761 24.9397 22.8043C24.9537 22.8335 24.9677 22.8684 24.9817 22.8975C24.9817 22.9034 24.9863 22.9034 24.9863 22.9092C25.0003 22.9383 25.019 22.9675 25.033 22.9966V23.0024C25.0517 23.0316 25.0657 23.0549 25.0843 23.084L25.0937 23.0956C25.1123 23.1189 25.131 23.1481 25.1543 23.1714L25.1637 23.183C25.187 23.2063 25.2056 23.2296 25.229 23.253L32.1766 30.198C32.3866 30.4077 32.6432 30.5126 32.8952 30.5126C33.1518 30.5126 33.4038 30.4077 33.6137 30.198L40.5614 23.253C40.5847 23.2296 40.6081 23.2063 40.6267 23.183L40.6361 23.1714C40.6547 23.1481 40.6734 23.1248 40.692 23.0956L40.7014 23.084C40.7387 23.0607 40.7527 23.0374 40.7714 23.0082ZM38.1444 20.736H27.6786L32.9465 5.16797L38.1444 20.736ZM8.13748 5.16797L13.3354 20.736H2.86958L8.13748 5.16797ZM8.09548 27.2731L4.38603 23.5676H11.8049L8.09548 27.2731ZM32.9092 27.2731L29.1997 23.5676H36.6186L32.9092 27.2731Z" fill="#F64C72"/>
</svg>
